<?xml version="1.0" encoding="UTF-8"?>
<svg xmlns="http://www.w3.org/2000/svg" xmlns:xlink="http://www.w3.org/1999/xlink" width="288pt" height="504pt" viewBox="0 0 288 504">
<defs>
<g>
<g id="glyph-0-0">
<path d="M 1.96875 0 L 1.96875 -17.179688 L 13.558594 -17.179688 L 13.558594 -15.152344 L 4.242188 -15.152344 L 4.242188 -9.832031 L 12.304688 -9.832031 L 12.304688 -7.804688 L 4.242188 -7.804688 L 4.242188 0 Z M 1.96875 0 "/>
</g>
<g id="glyph-0-1">
<path d="M 9.703125 -1.535156 C 8.921875 -0.871094 8.167969 -0.402344 7.445312 -0.128906 C 6.722656 0.144531 5.949219 0.28125 5.121094 0.28125 C 3.753906 0.28125 2.703125 -0.0546875 1.96875 -0.71875 C 1.234375 -1.386719 0.867188 -2.242188 0.867188 -3.28125 C 0.867188 -3.890625 1.003906 -4.445312 1.28125 -4.953125 C 1.558594 -5.453125 1.921875 -5.859375 2.375 -6.164062 C 2.820312 -6.46875 3.328125 -6.699219 3.890625 -6.855469 C 4.304688 -6.964844 4.929688 -7.070312 5.765625 -7.171875 C 7.46875 -7.375 8.722656 -7.617188 9.527344 -7.898438 C 9.535156 -8.1875 9.539062 -8.371094 9.539062 -8.449219 C 9.539062 -9.308594 9.339844 -9.914062 8.941406 -10.265625 C 8.402344 -10.742188 7.601562 -10.980469 6.539062 -10.980469 C 5.546875 -10.980469 4.8125 -10.804688 4.34375 -10.460938 C 3.867188 -10.109375 3.519531 -9.496094 3.292969 -8.613281 L 1.230469 -8.894531 C 1.417969 -9.777344 1.726562 -10.488281 2.15625 -11.03125 C 2.585938 -11.574219 3.207031 -11.992188 4.019531 -12.289062 C 4.832031 -12.578125 5.773438 -12.726562 6.84375 -12.726562 C 7.90625 -12.726562 8.769531 -12.601562 9.433594 -12.351562 C 10.097656 -12.101562 10.585938 -11.785156 10.898438 -11.40625 C 11.210938 -11.027344 11.429688 -10.550781 11.554688 -9.972656 C 11.625 -9.613281 11.660156 -8.964844 11.660156 -8.027344 L 11.660156 -5.214844 C 11.660156 -3.253906 11.703125 -2.011719 11.796875 -1.492188 C 11.882812 -0.972656 12.0625 -0.476562 12.328125 0 L 10.125 0 C 9.90625 -0.4375 9.765625 -0.949219 9.703125 -1.535156 M 9.527344 -6.246094 C 8.761719 -5.933594 7.613281 -5.667969 6.082031 -5.449219 C 5.214844 -5.324219 4.601562 -5.183594 4.242188 -5.027344 C 3.882812 -4.871094 3.605469 -4.640625 3.410156 -4.34375 C 3.214844 -4.039062 3.117188 -3.707031 3.117188 -3.339844 C 3.117188 -2.777344 3.328125 -2.308594 3.757812 -1.933594 C 4.179688 -1.558594 4.804688 -1.371094 5.625 -1.371094 C 6.4375 -1.371094 7.160156 -1.546875 7.792969 -1.90625 C 8.425781 -2.257812 8.890625 -2.746094 9.1875 -3.363281 C 9.414062 -3.839844 9.527344 -4.542969 9.527344 -5.472656 Z M 9.527344 -6.246094 "/>
</g>
<g id="glyph-0-2">
<path d="M 1.59375 0 L 1.59375 -17.179688 L 3.703125 -17.179688 L 3.703125 -7.382812 L 8.695312 -12.445312 L 11.425781 -12.445312 L 6.667969 -7.828125 L 11.90625 0 L 9.304688 0 L 5.191406 -6.363281 L 3.703125 -4.933594 L 3.703125 0 Z M 1.59375 0 "/>
</g>
<g id="glyph-0-3">
<path d="M 9.738281 0 L 9.738281 -1.828125 C 8.769531 -0.421875 7.453125 0.28125 5.789062 0.28125 C 5.054688 0.28125 4.367188 0.140625 3.734375 -0.140625 C 3.09375 -0.421875 2.621094 -0.773438 2.3125 -1.203125 C 2.003906 -1.625 1.789062 -2.148438 1.664062 -2.765625 C 1.578125 -3.179688 1.535156 -3.835938 1.535156 -4.734375 L 1.535156 -12.445312 L 3.644531 -12.445312 L 3.644531 -5.542969 C 3.644531 -4.441406 3.6875 -3.699219 3.773438 -3.316406 C 3.90625 -2.761719 4.1875 -2.328125 4.617188 -2.007812 C 5.046875 -1.695312 5.578125 -1.535156 6.210938 -1.535156 C 6.84375 -1.535156 7.4375 -1.695312 7.992188 -2.023438 C 8.546875 -2.34375 8.9375 -2.785156 9.171875 -3.34375 C 9.398438 -3.902344 9.515625 -4.714844 9.515625 -5.777344 L 9.515625 -12.445312 L 11.625 -12.445312 L 11.625 0 Z M 9.738281 0 "/>
</g>
<g id="glyph-0-4">
<path d="M 1.535156 0 L 1.535156 -17.179688 L 3.644531 -17.179688 L 3.644531 0 Z M 1.535156 0 "/>
</g>
<g id="glyph-0-5">
<path d="M 6.1875 -1.886719 L 6.492188 -0.0234375 C 5.898438 0.101562 5.367188 0.164062 4.898438 0.164062 C 4.132812 0.164062 3.539062 0.0429688 3.117188 -0.199219 C 2.695312 -0.441406 2.398438 -0.761719 2.226562 -1.15625 C 2.054688 -1.546875 1.96875 -2.378906 1.96875 -3.644531 L 1.96875 -10.804688 L 0.421875 -10.804688 L 0.421875 -12.445312 L 1.96875 -12.445312 L 1.96875 -15.527344 L 4.066406 -16.792969 L 4.066406 -12.445312 L 6.1875 -12.445312 L 6.1875 -10.804688 L 4.066406 -10.804688 L 4.066406 -3.527344 C 4.066406 -2.925781 4.101562 -2.539062 4.179688 -2.367188 C 4.25 -2.195312 4.371094 -2.058594 4.539062 -1.957031 C 4.707031 -1.855469 4.949219 -1.804688 5.261719 -1.804688 C 5.496094 -1.804688 5.804688 -1.832031 6.1875 -1.886719 Z M 6.1875 -1.886719 "/>
</g>
<g id="glyph-0-6">
<path d="M 9.703125 -1.535156 C 8.921875 -0.871094 8.167969 -0.402344 7.445312 -0.128906 C 6.722656 0.144531 5.949219 0.28125 5.121094 0.28125 C 3.753906 0.28125 2.703125 -0.0546875 1.96875 -0.71875 C 1.234375 -1.386719 0.867188 -2.242188 0.867188 -3.28125 C 0.867188 -3.890625 1.003906 -4.445312 1.28125 -4.953125 C 1.558594 -5.453125 1.921875 -5.859375 2.375 -6.164062 C 2.820312 -6.46875 3.328125 -6.699219 3.890625 -6.855469 C 4.304688 -6.964844 4.929688 -7.070312 5.765625 -7.171875 C 7.46875 -7.375 8.722656 -7.617188 9.527344 -7.898438 C 9.535156 -8.1875 9.539062 -8.371094 9.539062 -8.449219 C 9.539062 -9.308594 9.339844 -9.914062 8.941406 -10.265625 C 8.402344 -10.742188 7.601562 -10.980469 6.539062 -10.980469 C 5.546875 -10.980469 4.8125 -10.804688 4.34375 -10.460938 C 3.867188 -10.109375 3.519531 -9.496094 3.292969 -8.613281 L 1.230469 -8.894531 C 1.417969 -9.777344 1.726562 -10.488281 2.15625 -11.03125 C 2.585938 -11.574219 3.207031 -11.992188 4.019531 -12.289062 C 4.832031 -12.578125 5.773438 -12.726562 6.84375 -12.726562 C 7.90625 -12.726562 8.769531 -12.601562 9.433594 -12.351562 C 10.097656 -12.101562 10.585938 -11.785156 10.898438 -11.40625 C 11.210938 -11.027344 11.429688 -10.550781 11.554688 -9.972656 C 11.625 -9.613281 11.660156 -8.964844 11.660156 -8.027344 L 11.660156 -5.214844 C 11.660156 -3.253906 11.703125 -2.011719 11.796875 -1.492188 C 11.882812 -0.972656 12.0625 -0.476562 12.328125 0 L 10.125 0 C 9.90625 -0.4375 9.765625 -0.949219 9.703125 -1.535156 M 9.527344 -6.246094 C 8.761719 -5.933594 7.613281 -5.667969 6.082031 -5.449219 C 5.214844 -5.324219 4.601562 -5.183594 4.242188 -5.027344 C 3.882812 -4.871094 3.605469 -4.640625 3.410156 -4.34375 C 3.214844 -4.039062 3.117188 -3.707031 3.117188 -3.339844 C 3.117188 -2.777344 3.328125 -2.308594 3.757812 -1.933594 C 4.179688 -1.558594 4.804688 -1.371094 5.625 -1.371094 C 6.4375 -1.371094 7.160156 -1.546875 7.792969 -1.90625 C 8.425781 -2.257812 8.890625 -2.746094 9.1875 -3.363281 C 9.414062 -3.839844 9.527344 -4.542969 9.527344 -5.472656 L 9.527344 -6.246094 M 3.316406 -14.882812 L 3.316406 -17.285156 L 5.519531 -17.285156 L 5.519531 -14.882812 L 3.316406 -14.882812 M 7.6875 -14.882812 L 7.6875 -17.285156 L 9.890625 -17.285156 L 9.890625 -14.882812 Z M 7.6875 -14.882812 "/>
</g>
<g id="glyph-1-0">
<path d="M 0.863281 -4.414062 L 2.578125 -4.566406 C 2.660156 -3.878906 2.847656 -3.3125 3.144531 -2.875 C 3.441406 -2.433594 3.902344 -2.078125 4.527344 -1.804688 C 5.152344 -1.53125 5.855469 -1.398438 6.636719 -1.398438 C 7.332031 -1.398438 7.945312 -1.5 8.476562 -1.707031 C 9.007812 -1.914062 9.402344 -2.195312 9.660156 -2.554688 C 9.921875 -2.914062 10.050781 -3.304688 10.050781 -3.730469 C 10.050781 -4.164062 9.925781 -4.539062 9.675781 -4.859375 C 9.425781 -5.183594 9.011719 -5.453125 8.4375 -5.671875 C 8.070312 -5.816406 7.253906 -6.039062 5.992188 -6.34375 C 4.726562 -6.644531 3.84375 -6.929688 3.335938 -7.199219 C 2.679688 -7.542969 2.191406 -7.96875 1.871094 -8.480469 C 1.546875 -8.988281 1.386719 -9.558594 1.386719 -10.191406 C 1.386719 -10.882812 1.585938 -11.53125 1.976562 -12.136719 C 2.371094 -12.738281 2.945312 -13.195312 3.703125 -13.507812 C 4.460938 -13.820312 5.300781 -13.976562 6.226562 -13.976562 C 7.242188 -13.976562 8.140625 -13.8125 8.921875 -13.484375 C 9.699219 -13.15625 10.296875 -12.675781 10.714844 -12.039062 C 11.132812 -11.398438 11.359375 -10.679688 11.390625 -9.871094 L 9.648438 -9.742188 C 9.554688 -10.609375 9.234375 -11.265625 8.695312 -11.710938 C 8.15625 -12.152344 7.355469 -12.375 6.300781 -12.375 C 5.199219 -12.375 4.398438 -12.171875 3.894531 -11.769531 C 3.390625 -11.367188 3.140625 -10.882812 3.140625 -10.3125 C 3.140625 -9.820312 3.320312 -9.414062 3.675781 -9.09375 C 4.023438 -8.773438 4.9375 -8.449219 6.417969 -8.113281 C 7.894531 -7.78125 8.910156 -7.488281 9.460938 -7.238281 C 10.257812 -6.867188 10.851562 -6.402344 11.230469 -5.835938 C 11.613281 -5.269531 11.804688 -4.617188 11.804688 -3.882812 C 11.804688 -3.148438 11.59375 -2.460938 11.175781 -1.8125 C 10.757812 -1.167969 10.15625 -0.664062 9.371094 -0.304688 C 8.585938 0.0546875 7.703125 0.234375 6.722656 0.234375 C 5.476562 0.234375 4.4375 0.0546875 3.59375 -0.308594 C 2.753906 -0.671875 2.09375 -1.21875 1.617188 -1.945312 C 1.140625 -2.671875 0.886719 -3.496094 0.863281 -4.414062 Z M 0.863281 -4.414062 "/>
</g>
<g id="glyph-1-1">
<path d="M 0.636719 -4.976562 C 0.636719 -6.820312 1.148438 -8.1875 2.175781 -9.074219 C 3.03125 -9.8125 4.074219 -10.179688 5.304688 -10.179688 C 6.675781 -10.179688 7.792969 -9.734375 8.664062 -8.835938 C 9.53125 -7.9375 9.964844 -6.699219 9.964844 -5.117188 C 9.964844 -3.835938 9.773438 -2.828125 9.390625 -2.09375 C 9.003906 -1.359375 8.445312 -0.789062 7.710938 -0.382812 C 6.976562 0.0234375 6.175781 0.226562 5.304688 0.226562 C 3.914062 0.226562 2.785156 -0.222656 1.925781 -1.117188 C 1.066406 -2.007812 0.636719 -3.296875 0.636719 -4.976562 M 2.371094 -4.976562 C 2.371094 -3.703125 2.648438 -2.75 3.207031 -2.113281 C 3.761719 -1.480469 4.460938 -1.164062 5.304688 -1.164062 C 6.144531 -1.164062 6.839844 -1.480469 7.398438 -2.117188 C 7.953125 -2.757812 8.230469 -3.726562 8.230469 -5.035156 C 8.230469 -6.265625 7.953125 -7.199219 7.390625 -7.832031 C 6.832031 -8.46875 6.136719 -8.785156 5.304688 -8.785156 C 4.460938 -8.785156 3.761719 -8.46875 3.207031 -7.835938 C 2.648438 -7.207031 2.371094 -6.253906 2.371094 -4.976562 Z M 2.371094 -4.976562 "/>
</g>
<g id="glyph-1-2">
<path d="M 7.761719 -3.648438 L 9.421875 -3.429688 C 9.242188 -2.289062 8.777344 -1.390625 8.03125 -0.746094 C 7.28125 -0.0976562 6.367188 0.226562 5.277344 0.226562 C 3.914062 0.226562 2.820312 -0.21875 1.992188 -1.109375 C 1.164062 -2 0.75 -3.277344 0.75 -4.941406 C 0.75 -6.015625 0.929688 -6.957031 1.285156 -7.761719 C 1.640625 -8.570312 2.183594 -9.171875 2.910156 -9.578125 C 3.640625 -9.980469 4.429688 -10.179688 5.289062 -10.179688 C 6.367188 -10.179688 7.253906 -9.90625 7.941406 -9.359375 C 8.628906 -8.8125 9.070312 -8.039062 9.261719 -7.03125 L 7.621094 -6.777344 C 7.464844 -7.445312 7.1875 -7.949219 6.792969 -8.289062 C 6.394531 -8.625 5.914062 -8.792969 5.351562 -8.792969 C 4.503906 -8.792969 3.8125 -8.488281 3.28125 -7.878906 C 2.75 -7.269531 2.484375 -6.304688 2.484375 -4.988281 C 2.484375 -3.648438 2.742188 -2.679688 3.253906 -2.070312 C 3.765625 -1.464844 4.433594 -1.164062 5.257812 -1.164062 C 5.921875 -1.164062 6.476562 -1.367188 6.917969 -1.773438 C 7.363281 -2.179688 7.644531 -2.804688 7.761719 -3.648438 Z M 7.761719 -3.648438 "/>
</g>
<g id="glyph-1-3">
<path d="M 1.273438 -11.804688 L 1.273438 -13.742188 L 2.960938 -13.742188 L 2.960938 -11.804688 L 1.273438 -11.804688 M 1.273438 0 L 1.273438 -9.957031 L 2.960938 -9.957031 L 2.960938 0 Z M 1.273438 0 "/>
</g>
<g id="glyph-1-4">
<path d="M 7.761719 -1.226562 C 7.136719 -0.695312 6.535156 -0.320312 5.957031 -0.101562 C 5.378906 0.117188 4.757812 0.226562 4.097656 0.226562 C 3.003906 0.226562 2.164062 -0.0429688 1.574219 -0.578125 C 0.988281 -1.109375 0.695312 -1.792969 0.695312 -2.625 C 0.695312 -3.113281 0.804688 -3.558594 1.027344 -3.960938 C 1.25 -4.363281 1.539062 -4.6875 1.898438 -4.929688 C 2.257812 -5.175781 2.664062 -5.359375 3.113281 -5.484375 C 3.445312 -5.570312 3.945312 -5.65625 4.613281 -5.738281 C 5.976562 -5.898438 6.976562 -6.09375 7.621094 -6.320312 C 7.628906 -6.550781 7.632812 -6.695312 7.632812 -6.757812 C 7.632812 -7.445312 7.472656 -7.929688 7.152344 -8.210938 C 6.722656 -8.59375 6.082031 -8.785156 5.230469 -8.785156 C 4.4375 -8.785156 3.851562 -8.644531 3.472656 -8.367188 C 3.09375 -8.089844 2.816406 -7.597656 2.632812 -6.890625 L 0.984375 -7.117188 C 1.132812 -7.820312 1.382812 -8.390625 1.726562 -8.828125 C 2.070312 -9.261719 2.566406 -9.59375 3.214844 -9.828125 C 3.867188 -10.0625 4.617188 -10.179688 5.476562 -10.179688 C 6.324219 -10.179688 7.015625 -10.082031 7.546875 -9.882812 C 8.078125 -9.679688 8.46875 -9.429688 8.71875 -9.125 C 8.96875 -8.824219 9.144531 -8.441406 9.242188 -7.976562 C 9.300781 -7.691406 9.328125 -7.171875 9.328125 -6.421875 L 9.328125 -4.171875 C 9.328125 -2.601562 9.363281 -1.609375 9.4375 -1.195312 C 9.507812 -0.78125 9.648438 -0.382812 9.863281 0 L 8.101562 0 C 7.925781 -0.351562 7.8125 -0.757812 7.761719 -1.226562 M 7.621094 -4.996094 C 7.007812 -4.746094 6.089844 -4.535156 4.867188 -4.359375 C 4.171875 -4.257812 3.679688 -4.148438 3.394531 -4.023438 C 3.105469 -3.898438 2.882812 -3.714844 2.726562 -3.472656 C 2.570312 -3.234375 2.492188 -2.964844 2.492188 -2.671875 C 2.492188 -2.222656 2.664062 -1.847656 3.003906 -1.546875 C 3.34375 -1.246094 3.84375 -1.097656 4.5 -1.097656 C 5.148438 -1.097656 5.726562 -1.238281 6.234375 -1.523438 C 6.742188 -1.808594 7.113281 -2.195312 7.351562 -2.691406 C 7.53125 -3.070312 7.621094 -3.632812 7.621094 -4.378906 Z M 7.621094 -4.996094 "/>
</g>
<g id="glyph-1-5">
<path d="M 1.226562 0 L 1.226562 -13.742188 L 2.914062 -13.742188 L 2.914062 0 Z M 1.226562 0 "/>
</g>
<g id="glyph-1-6">
</g>
<g id="glyph-1-7">
<path d="M 8.082031 -3.207031 L 9.824219 -2.992188 C 9.550781 -1.972656 9.039062 -1.179688 8.296875 -0.617188 C 7.554688 -0.0546875 6.601562 0.226562 5.445312 0.226562 C 3.992188 0.226562 2.835938 -0.222656 1.984375 -1.121094 C 1.128906 -2.015625 0.703125 -3.273438 0.703125 -4.894531 C 0.703125 -6.570312 1.132812 -7.867188 1.996094 -8.792969 C 2.859375 -9.71875 3.976562 -10.179688 5.351562 -10.179688 C 6.683594 -10.179688 7.773438 -9.726562 8.617188 -8.820312 C 9.460938 -7.914062 9.882812 -6.640625 9.882812 -4.996094 C 9.882812 -4.898438 9.878906 -4.746094 9.871094 -4.546875 L 2.445312 -4.546875 C 2.507812 -3.453125 2.820312 -2.617188 3.375 -2.035156 C 3.929688 -1.453125 4.625 -1.164062 5.457031 -1.164062 C 6.074219 -1.164062 6.601562 -1.324219 7.039062 -1.648438 C 7.476562 -1.976562 7.824219 -2.492188 8.082031 -3.207031 M 2.539062 -5.933594 L 8.101562 -5.933594 C 8.023438 -6.773438 7.8125 -7.398438 7.460938 -7.820312 C 6.925781 -8.46875 6.226562 -8.792969 5.371094 -8.792969 C 4.597656 -8.792969 3.945312 -8.535156 3.417969 -8.015625 C 2.890625 -7.496094 2.597656 -6.804688 2.539062 -5.933594 Z M 2.539062 -5.933594 "/>
</g>
<g id="glyph-1-8">
<path d="M 1.265625 0 L 1.265625 -9.957031 L 2.785156 -9.957031 L 2.785156 -8.539062 C 3.515625 -9.632812 4.570312 -10.179688 5.953125 -10.179688 C 6.554688 -10.179688 7.105469 -10.074219 7.609375 -9.859375 C 8.109375 -9.640625 8.488281 -9.359375 8.738281 -9.007812 C 8.988281 -8.660156 9.164062 -8.242188 9.261719 -7.761719 C 9.324219 -7.449219 9.355469 -6.902344 9.355469 -6.121094 L 9.355469 0 L 7.667969 0 L 7.667969 -6.054688 C 7.667969 -6.742188 7.601562 -7.257812 7.472656 -7.597656 C 7.339844 -7.9375 7.109375 -8.210938 6.773438 -8.414062 C 6.4375 -8.617188 6.046875 -8.71875 5.597656 -8.71875 C 4.878906 -8.71875 4.257812 -8.492188 3.734375 -8.035156 C 3.214844 -7.578125 2.953125 -6.710938 2.953125 -5.4375 L 2.953125 0 Z M 1.265625 0 "/>
</g>
<g id="glyph-1-9">
<path d="M 0.589844 -2.972656 L 2.257812 -3.234375 C 2.351562 -2.566406 2.613281 -2.054688 3.042969 -1.695312 C 3.46875 -1.339844 4.070312 -1.164062 4.835938 -1.164062 C 5.613281 -1.164062 6.1875 -1.320312 6.5625 -1.636719 C 6.9375 -1.953125 7.125 -2.320312 7.125 -2.746094 C 7.125 -3.128906 6.960938 -3.429688 6.628906 -3.648438 C 6.398438 -3.796875 5.820312 -3.988281 4.902344 -4.21875 C 3.664062 -4.53125 2.808594 -4.800781 2.328125 -5.03125 C 1.851562 -5.257812 1.488281 -5.574219 1.242188 -5.976562 C 0.996094 -6.378906 0.871094 -6.824219 0.871094 -7.3125 C 0.871094 -7.757812 0.972656 -8.167969 1.175781 -8.546875 C 1.378906 -8.921875 1.65625 -9.238281 2.007812 -9.488281 C 2.269531 -9.679688 2.625 -9.84375 3.078125 -9.980469 C 3.53125 -10.113281 4.019531 -10.179688 4.539062 -10.179688 C 5.320312 -10.179688 6.003906 -10.070312 6.59375 -9.84375 C 7.1875 -9.617188 7.621094 -9.3125 7.902344 -8.929688 C 8.183594 -8.546875 8.378906 -8.03125 8.484375 -7.386719 L 6.835938 -7.164062 C 6.757812 -7.675781 6.542969 -8.074219 6.183594 -8.363281 C 5.824219 -8.648438 5.316406 -8.792969 4.660156 -8.792969 C 3.882812 -8.792969 3.332031 -8.664062 3 -8.410156 C 2.667969 -8.152344 2.503906 -7.851562 2.503906 -7.507812 C 2.503906 -7.289062 2.570312 -7.09375 2.710938 -6.917969 C 2.847656 -6.738281 3.0625 -6.585938 3.355469 -6.46875 C 3.523438 -6.40625 4.023438 -6.261719 4.847656 -6.039062 C 6.039062 -5.71875 6.875 -5.457031 7.34375 -5.253906 C 7.816406 -5.050781 8.1875 -4.757812 8.457031 -4.367188 C 8.726562 -3.980469 8.859375 -3.5 8.859375 -2.925781 C 8.859375 -2.363281 8.695312 -1.832031 8.367188 -1.335938 C 8.039062 -0.839844 7.566406 -0.453125 6.945312 -0.183594 C 6.328125 0.0898438 5.628906 0.226562 4.847656 0.226562 C 3.554688 0.226562 2.566406 -0.0429688 1.890625 -0.582031 C 1.210938 -1.117188 0.777344 -1.914062 0.589844 -2.972656 Z M 0.589844 -2.972656 "/>
</g>
<g id="glyph-1-10">
<path d="M -0.0273438 0 L 5.25 -13.742188 L 7.210938 -13.742188 L 12.835938 0 L 10.761719 0 L 9.160156 -4.164062 L 3.414062 -4.164062 L 1.902344 0 L -0.0273438 0 M 3.9375 -5.644531 L 8.597656 -5.644531 L 7.164062 -9.449219 C 6.726562 -10.605469 6.398438 -11.554688 6.1875 -12.300781 C 6.011719 -11.417969 5.765625 -10.542969 5.445312 -9.675781 Z M 3.9375 -5.644531 "/>
</g>
<g id="glyph-1-11">
<path d="M 1.246094 0 L 1.246094 -9.957031 L 2.765625 -9.957031 L 2.765625 -8.445312 C 3.152344 -9.152344 3.511719 -9.617188 3.839844 -9.84375 C 4.167969 -10.070312 4.527344 -10.179688 4.921875 -10.179688 C 5.492188 -10.179688 6.070312 -10 6.65625 -9.636719 L 6.074219 -8.070312 C 5.664062 -8.316406 5.25 -8.4375 4.835938 -8.4375 C 4.46875 -8.4375 4.136719 -8.328125 3.84375 -8.105469 C 3.550781 -7.882812 3.339844 -7.574219 3.214844 -7.179688 C 3.027344 -6.582031 2.933594 -5.925781 2.933594 -5.210938 L 2.933594 0 Z M 1.246094 0 "/>
</g>
<g id="glyph-1-12">
<path d="M 4.949219 -1.507812 L 5.195312 -0.0195312 C 4.71875 0.0820312 4.292969 0.132812 3.917969 0.132812 C 3.304688 0.132812 2.832031 0.0351562 2.492188 -0.160156 C 2.15625 -0.351562 1.917969 -0.609375 1.78125 -0.921875 C 1.644531 -1.238281 1.574219 -1.902344 1.574219 -2.914062 L 1.574219 -8.644531 L 0.335938 -8.644531 L 0.335938 -9.957031 L 1.574219 -9.957031 L 1.574219 -12.421875 L 3.253906 -13.433594 L 3.253906 -9.957031 L 4.949219 -9.957031 L 4.949219 -8.644531 L 3.253906 -8.644531 L 3.253906 -2.820312 C 3.253906 -2.339844 3.28125 -2.03125 3.34375 -1.894531 C 3.402344 -1.757812 3.5 -1.648438 3.632812 -1.566406 C 3.765625 -1.484375 3.960938 -1.445312 4.210938 -1.445312 C 4.398438 -1.445312 4.644531 -1.464844 4.949219 -1.507812 Z M 4.949219 -1.507812 "/>
</g>
<g id="glyph-1-13">
<path d="M 7.726562 0 L 7.726562 -1.257812 C 7.09375 -0.269531 6.164062 0.226562 4.941406 0.226562 C 4.148438 0.226562 3.417969 0.0078125 2.75 -0.429688 C 2.085938 -0.867188 1.570312 -1.480469 1.203125 -2.265625 C 0.839844 -3.046875 0.65625 -3.949219 0.65625 -4.96875 C 0.65625 -5.960938 0.820312 -6.863281 1.152344 -7.671875 C 1.484375 -8.484375 1.980469 -9.101562 2.644531 -9.535156 C 3.304688 -9.964844 4.046875 -10.179688 4.867188 -10.179688 C 5.464844 -10.179688 6 -10.054688 6.46875 -9.800781 C 6.9375 -9.546875 7.320312 -9.21875 7.613281 -8.8125 L 7.613281 -13.742188 L 9.289062 -13.742188 L 9.289062 0 L 7.726562 0 M 2.390625 -4.96875 C 2.390625 -3.695312 2.660156 -2.742188 3.195312 -2.109375 C 3.734375 -1.476562 4.367188 -1.164062 5.101562 -1.164062 C 5.835938 -1.164062 6.464844 -1.464844 6.980469 -2.066406 C 7.496094 -2.671875 7.753906 -3.589844 7.753906 -4.828125 C 7.753906 -6.191406 7.492188 -7.191406 6.964844 -7.828125 C 6.441406 -8.464844 5.792969 -8.785156 5.023438 -8.785156 C 4.273438 -8.785156 3.648438 -8.476562 3.144531 -7.867188 C 2.640625 -7.253906 2.390625 -6.289062 2.390625 -4.96875 Z M 2.390625 -4.96875 "/>
</g>
<g id="glyph-1-14">
<path d="M 1.265625 3.816406 L 1.265625 -9.957031 L 2.804688 -9.957031 L 2.804688 -8.664062 C 3.164062 -9.167969 3.574219 -9.546875 4.03125 -9.800781 C 4.488281 -10.054688 5.039062 -10.179688 5.691406 -10.179688 C 6.539062 -10.179688 7.289062 -9.960938 7.941406 -9.523438 C 8.589844 -9.085938 9.082031 -8.46875 9.414062 -7.671875 C 9.742188 -6.875 9.910156 -6.003906 9.910156 -5.054688 C 9.910156 -4.035156 9.726562 -3.117188 9.359375 -2.300781 C 8.996094 -1.484375 8.464844 -0.859375 7.765625 -0.425781 C 7.070312 0.0078125 6.335938 0.226562 5.570312 0.226562 C 5.007812 0.226562 4.5 0.105469 4.054688 -0.132812 C 3.609375 -0.367188 3.242188 -0.667969 2.953125 -1.03125 L 2.953125 3.816406 L 1.265625 3.816406 M 2.792969 -4.921875 C 2.792969 -3.640625 3.054688 -2.695312 3.570312 -2.082031 C 4.089844 -1.46875 4.71875 -1.164062 5.457031 -1.164062 C 6.207031 -1.164062 6.847656 -1.480469 7.382812 -2.113281 C 7.917969 -2.75 8.183594 -3.730469 8.183594 -5.0625 C 8.183594 -6.332031 7.921875 -7.28125 7.402344 -7.914062 C 6.878906 -8.542969 6.257812 -8.859375 5.53125 -8.859375 C 4.8125 -8.859375 4.175781 -8.523438 3.625 -7.851562 C 3.070312 -7.179688 2.792969 -6.203125 2.792969 -4.921875 Z M 2.792969 -4.921875 "/>
</g>
<g id="glyph-1-15">
<path d="M 11.289062 -4.820312 L 13.105469 -4.359375 C 12.726562 -2.867188 12.039062 -1.726562 11.046875 -0.941406 C 10.058594 -0.15625 8.847656 0.234375 7.414062 0.234375 C 5.933594 0.234375 4.730469 -0.0664062 3.800781 -0.671875 C 2.875 -1.273438 2.167969 -2.148438 1.683594 -3.289062 C 1.199219 -4.433594 0.957031 -5.664062 0.957031 -6.976562 C 0.957031 -8.40625 1.230469 -9.65625 1.777344 -10.71875 C 2.324219 -11.785156 3.101562 -12.59375 4.109375 -13.148438 C 5.121094 -13.703125 6.230469 -13.976562 7.445312 -13.976562 C 8.820312 -13.976562 9.976562 -13.628906 10.914062 -12.929688 C 11.851562 -12.226562 12.503906 -11.242188 12.871094 -9.976562 L 11.082031 -9.554688 C 10.761719 -10.554688 10.300781 -11.28125 9.695312 -11.738281 C 9.085938 -12.195312 8.324219 -12.421875 7.40625 -12.421875 C 6.351562 -12.421875 5.46875 -12.167969 4.757812 -11.664062 C 4.046875 -11.15625 3.550781 -10.476562 3.261719 -9.625 C 2.976562 -8.769531 2.832031 -7.890625 2.832031 -6.984375 C 2.832031 -5.816406 3 -4.796875 3.34375 -3.921875 C 3.683594 -3.050781 4.210938 -2.398438 4.929688 -1.96875 C 5.648438 -1.539062 6.429688 -1.320312 7.265625 -1.320312 C 8.285156 -1.320312 9.148438 -1.617188 9.851562 -2.203125 C 10.558594 -2.789062 11.039062 -3.664062 11.289062 -4.820312 Z M 11.289062 -4.820312 "/>
</g>
<g id="glyph-1-16">
<path d="M 7.789062 0 L 7.789062 -1.460938 C 7.015625 -0.335938 5.960938 0.226562 4.632812 0.226562 C 4.042969 0.226562 3.496094 0.113281 2.984375 -0.113281 C 2.476562 -0.335938 2.097656 -0.621094 1.851562 -0.960938 C 1.605469 -1.300781 1.429688 -1.71875 1.332031 -2.210938 C 1.261719 -2.542969 1.226562 -3.070312 1.226562 -3.789062 L 1.226562 -9.957031 L 2.914062 -9.957031 L 2.914062 -4.433594 C 2.914062 -3.554688 2.949219 -2.960938 3.019531 -2.652344 C 3.125 -2.210938 3.351562 -1.859375 3.695312 -1.609375 C 4.039062 -1.355469 4.460938 -1.226562 4.96875 -1.226562 C 5.476562 -1.226562 5.949219 -1.359375 6.394531 -1.617188 C 6.835938 -1.875 7.152344 -2.230469 7.335938 -2.675781 C 7.519531 -3.125 7.613281 -3.773438 7.613281 -4.621094 L 7.613281 -9.957031 L 9.300781 -9.957031 L 9.300781 0 Z M 7.789062 0 "/>
</g>
<g id="glyph-1-17">
<path d="M 1.539062 0 L 1.539062 -13.742188 L 3.355469 -13.742188 L 3.355469 -8.101562 L 10.5 -8.101562 L 10.5 -13.742188 L 12.320312 -13.742188 L 12.320312 0 L 10.5 0 L 10.5 -6.476562 L 3.355469 -6.476562 L 3.355469 0 Z M 1.539062 0 "/>
</g>
<g id="glyph-1-18">
<path d="M 1.265625 0 L 1.265625 -9.957031 L 2.773438 -9.957031 L 2.773438 -8.558594 C 3.085938 -9.046875 3.503906 -9.4375 4.023438 -9.734375 C 4.539062 -10.03125 5.132812 -10.179688 5.792969 -10.179688 C 6.53125 -10.179688 7.136719 -10.027344 7.609375 -9.722656 C 8.078125 -9.414062 8.414062 -8.988281 8.605469 -8.4375 C 9.394531 -9.601562 10.417969 -10.179688 11.679688 -10.179688 C 12.667969 -10.179688 13.429688 -9.90625 13.960938 -9.359375 C 14.492188 -8.8125 14.757812 -7.972656 14.757812 -6.835938 L 14.757812 0 L 13.078125 0 L 13.078125 -6.273438 C 13.078125 -6.945312 13.023438 -7.433594 12.914062 -7.730469 C 12.804688 -8.027344 12.605469 -8.265625 12.320312 -8.445312 C 12.03125 -8.628906 11.695312 -8.71875 11.304688 -8.71875 C 10.605469 -8.71875 10.023438 -8.484375 9.5625 -8.019531 C 9.101562 -7.554688 8.867188 -6.808594 8.867188 -5.785156 L 8.867188 0 L 7.179688 0 L 7.179688 -6.46875 C 7.179688 -7.21875 7.042969 -7.78125 6.769531 -8.15625 C 6.492188 -8.53125 6.042969 -8.71875 5.417969 -8.71875 C 4.945312 -8.71875 4.503906 -8.59375 4.101562 -8.34375 C 3.699219 -8.09375 3.40625 -7.726562 3.226562 -7.246094 C 3.042969 -6.765625 2.953125 -6.070312 2.953125 -5.164062 L 2.953125 0 Z M 1.265625 0 "/>
</g>
<g id="glyph-1-19">
<path d="M 4.976562 0 L 4.976562 -12.121094 L 0.449219 -12.121094 L 0.449219 -13.742188 L 11.34375 -13.742188 L 11.34375 -12.121094 L 6.796875 -12.121094 L 6.796875 0 Z M 4.976562 0 "/>
</g>
<g id="glyph-1-20">
<path d="M 1.265625 0 L 1.265625 -13.742188 L 2.953125 -13.742188 L 2.953125 -8.8125 C 3.742188 -9.726562 4.734375 -10.179688 5.933594 -10.179688 C 6.671875 -10.179688 7.3125 -10.035156 7.855469 -9.746094 C 8.398438 -9.453125 8.789062 -9.054688 9.023438 -8.539062 C 9.257812 -8.027344 9.375 -7.285156 9.375 -6.308594 L 9.375 0 L 7.6875 0 L 7.6875 -6.308594 C 7.6875 -7.152344 7.503906 -7.765625 7.140625 -8.152344 C 6.773438 -8.535156 6.257812 -8.726562 5.585938 -8.726562 C 5.085938 -8.726562 4.617188 -8.597656 4.175781 -8.339844 C 3.734375 -8.078125 3.421875 -7.726562 3.234375 -7.285156 C 3.046875 -6.839844 2.953125 -6.226562 2.953125 -5.445312 L 2.953125 0 Z M 1.265625 0 "/>
</g>
<g id="glyph-1-21">
<path d="M 0.957031 0.824219 L 2.597656 1.070312 C 2.664062 1.574219 2.855469 1.945312 3.167969 2.175781 C 3.585938 2.488281 4.160156 2.644531 4.882812 2.644531 C 5.664062 2.644531 6.269531 2.488281 6.695312 2.175781 C 7.117188 1.863281 7.40625 1.425781 7.554688 0.863281 C 7.644531 0.519531 7.683594 -0.203125 7.679688 -1.304688 C 6.941406 -0.433594 6.023438 0 4.921875 0 C 3.554688 0 2.492188 -0.492188 1.742188 -1.480469 C 0.992188 -2.46875 0.617188 -3.652344 0.617188 -5.035156 C 0.617188 -5.984375 0.789062 -6.859375 1.132812 -7.664062 C 1.476562 -8.46875 1.976562 -9.085938 2.628906 -9.523438 C 3.28125 -9.960938 4.050781 -10.179688 4.929688 -10.179688 C 6.105469 -10.179688 7.074219 -9.707031 7.835938 -8.757812 L 7.835938 -9.957031 L 9.394531 -9.957031 L 9.394531 -1.351562 C 9.394531 0.199219 9.234375 1.296875 8.921875 1.945312 C 8.605469 2.59375 8.105469 3.101562 7.421875 3.476562 C 6.734375 3.851562 5.894531 4.039062 4.894531 4.039062 C 3.707031 4.039062 2.746094 3.773438 2.015625 3.238281 C 1.285156 2.703125 0.929688 1.898438 0.957031 0.824219 M 2.351562 -5.15625 C 2.351562 -3.851562 2.613281 -2.898438 3.132812 -2.296875 C 3.648438 -1.695312 4.300781 -1.398438 5.082031 -1.398438 C 5.855469 -1.398438 6.507812 -1.695312 7.03125 -2.292969 C 7.554688 -2.890625 7.820312 -3.824219 7.820312 -5.101562 C 7.820312 -6.320312 7.546875 -7.238281 7.007812 -7.855469 C 6.46875 -8.476562 5.816406 -8.785156 5.054688 -8.785156 C 4.304688 -8.785156 3.664062 -8.480469 3.140625 -7.871094 C 2.617188 -7.261719 2.351562 -6.355469 2.351562 -5.15625 Z M 2.351562 -5.15625 "/>
</g>
<g id="glyph-1-22">
<path d="M 1.191406 3.835938 L 1.003906 2.25 C 1.371094 2.351562 1.695312 2.398438 1.96875 2.398438 C 2.34375 2.398438 2.644531 2.335938 2.867188 2.210938 C 3.09375 2.085938 3.277344 1.914062 3.421875 1.6875 C 3.527344 1.519531 3.699219 1.101562 3.9375 0.429688 C 3.96875 0.335938 4.019531 0.199219 4.085938 0.0195312 L 0.308594 -9.957031 L 2.128906 -9.957031 L 4.199219 -4.191406 C 4.46875 -3.460938 4.710938 -2.691406 4.921875 -1.882812 C 5.117188 -2.660156 5.347656 -3.414062 5.617188 -4.152344 L 7.742188 -9.957031 L 9.429688 -9.957031 L 5.644531 0.167969 C 5.238281 1.261719 4.921875 2.015625 4.695312 2.429688 C 4.398438 2.984375 4.054688 3.390625 3.664062 3.652344 C 3.277344 3.910156 2.816406 4.039062 2.277344 4.039062 C 1.953125 4.039062 1.589844 3.972656 1.191406 3.835938 Z M 1.191406 3.835938 "/>
</g>
<g id="glyph-1-23">
<path d="M 1.507812 0 L 1.507812 -13.742188 L 7.601562 -13.742188 C 8.828125 -13.742188 9.757812 -13.621094 10.398438 -13.375 C 11.035156 -13.125 11.542969 -12.691406 11.925781 -12.066406 C 12.304688 -11.441406 12.496094 -10.75 12.496094 -9.992188 C 12.496094 -9.019531 12.179688 -8.195312 11.550781 -7.527344 C 10.917969 -6.859375 9.945312 -6.433594 8.625 -6.253906 C 9.105469 -6.023438 9.472656 -5.792969 9.722656 -5.570312 C 10.253906 -5.082031 10.757812 -4.472656 11.230469 -3.742188 L 13.621094 0 L 11.335938 0 L 9.515625 -2.859375 C 8.984375 -3.683594 8.546875 -4.316406 8.203125 -4.753906 C 7.859375 -5.191406 7.550781 -5.496094 7.28125 -5.671875 C 7.007812 -5.847656 6.730469 -5.96875 6.449219 -6.039062 C 6.242188 -6.082031 5.90625 -6.101562 5.4375 -6.101562 L 3.328125 -6.101562 L 3.328125 0 L 1.507812 0 M 3.328125 -7.679688 L 7.238281 -7.679688 C 8.070312 -7.679688 8.71875 -7.765625 9.1875 -7.9375 C 9.65625 -8.109375 10.011719 -8.382812 10.257812 -8.761719 C 10.5 -9.140625 10.621094 -9.550781 10.621094 -9.992188 C 10.621094 -10.644531 10.386719 -11.179688 9.914062 -11.597656 C 9.441406 -12.015625 8.695312 -12.226562 7.679688 -12.226562 L 3.328125 -12.226562 Z M 3.328125 -7.679688 "/>
</g>
<g id="glyph-1-24">
<path d="M 2.820312 0 L 1.257812 0 L 1.257812 -13.742188 L 2.945312 -13.742188 L 2.945312 -8.839844 C 3.65625 -9.734375 4.566406 -10.179688 5.671875 -10.179688 C 6.285156 -10.179688 6.863281 -10.058594 7.410156 -9.8125 C 7.957031 -9.5625 8.40625 -9.21875 8.761719 -8.769531 C 9.113281 -8.324219 9.390625 -7.785156 9.589844 -7.152344 C 9.789062 -6.523438 9.890625 -5.847656 9.890625 -5.128906 C 9.890625 -3.421875 9.46875 -2.101562 8.625 -1.171875 C 7.78125 -0.242188 6.769531 0.226562 5.585938 0.226562 C 4.414062 0.226562 3.492188 -0.265625 2.820312 -1.246094 L 2.820312 0 M 2.804688 -5.054688 C 2.804688 -3.859375 2.964844 -2.996094 3.289062 -2.464844 C 3.820312 -1.597656 4.539062 -1.164062 5.445312 -1.164062 C 6.183594 -1.164062 6.820312 -1.484375 7.359375 -2.125 C 7.898438 -2.765625 8.164062 -3.71875 8.164062 -4.988281 C 8.164062 -6.289062 7.90625 -7.246094 7.390625 -7.867188 C 6.875 -8.484375 6.253906 -8.792969 5.523438 -8.792969 C 4.785156 -8.792969 4.148438 -8.472656 3.609375 -7.832031 C 3.070312 -7.191406 2.804688 -6.265625 2.804688 -5.054688 Z M 2.804688 -5.054688 "/>
</g>
<g id="glyph-1-25">
<path d="M 1.519531 0 L 1.519531 -13.742188 L 11.457031 -13.742188 L 11.457031 -12.121094 L 3.335938 -12.121094 L 3.335938 -7.914062 L 10.941406 -7.914062 L 10.941406 -6.300781 L 3.335938 -6.300781 L 3.335938 -1.621094 L 11.773438 -1.621094 L 11.773438 0 Z M 1.519531 0 "/>
</g>
<g id="glyph-1-26">
<path d="M 9.121094 -1.621094 C 8.566406 -1.003906 7.960938 -0.539062 7.304688 -0.230469 C 6.648438 0.078125 5.9375 0.234375 5.175781 0.234375 C 3.769531 0.234375 2.652344 -0.242188 1.828125 -1.191406 C 1.160156 -1.964844 0.824219 -2.832031 0.824219 -3.789062 C 0.824219 -4.636719 1.097656 -5.40625 1.644531 -6.089844 C 2.191406 -6.773438 3.007812 -7.375 4.097656 -7.894531 C 3.476562 -8.605469 3.066406 -9.183594 2.859375 -9.628906 C 2.652344 -10.070312 2.550781 -10.5 2.550781 -10.914062 C 2.550781 -11.738281 2.875 -12.453125 3.519531 -13.0625 C 4.167969 -13.671875 4.980469 -13.976562 5.960938 -13.976562 C 6.898438 -13.976562 7.667969 -13.691406 8.265625 -13.117188 C 8.859375 -12.539062 9.160156 -11.851562 9.160156 -11.042969 C 9.160156 -9.738281 8.292969 -8.621094 6.5625 -7.695312 L 9.027344 -4.554688 C 9.308594 -5.105469 9.527344 -5.742188 9.683594 -6.46875 L 11.4375 -6.09375 C 11.136719 -4.894531 10.730469 -3.90625 10.21875 -3.132812 C 10.851562 -2.292969 11.566406 -1.589844 12.367188 -1.023438 L 11.230469 0.320312 C 10.550781 -0.117188 9.847656 -0.765625 9.121094 -1.621094 M 5.691406 -8.785156 C 6.421875 -9.214844 6.894531 -9.59375 7.109375 -9.917969 C 7.328125 -10.242188 7.433594 -10.601562 7.433594 -10.996094 C 7.433594 -11.464844 7.285156 -11.847656 6.988281 -12.144531 C 6.691406 -12.441406 6.320312 -12.589844 5.878906 -12.589844 C 5.421875 -12.589844 5.042969 -12.445312 4.738281 -12.148438 C 4.4375 -11.855469 4.285156 -11.496094 4.285156 -11.070312 C 4.285156 -10.859375 4.339844 -10.636719 4.449219 -10.402344 C 4.558594 -10.167969 4.722656 -9.917969 4.941406 -9.65625 L 5.691406 -8.785156 M 8.0625 -2.953125 L 4.96875 -6.789062 C 4.054688 -6.242188 3.441406 -5.738281 3.121094 -5.273438 C 2.804688 -4.808594 2.644531 -4.347656 2.644531 -3.890625 C 2.644531 -3.335938 2.867188 -2.757812 3.308594 -2.15625 C 3.753906 -1.554688 4.382812 -1.257812 5.195312 -1.257812 C 5.699219 -1.257812 6.222656 -1.414062 6.765625 -1.730469 C 7.304688 -2.046875 7.738281 -2.453125 8.0625 -2.953125 Z M 8.0625 -2.953125 "/>
</g>
<g id="glyph-1-27">
<path d="M 1.480469 0 L 1.480469 -13.742188 L 6.664062 -13.742188 C 7.578125 -13.742188 8.273438 -13.699219 8.757812 -13.613281 C 9.429688 -13.5 9.996094 -13.285156 10.453125 -12.96875 C 10.910156 -12.65625 11.277344 -12.210938 11.554688 -11.644531 C 11.832031 -11.074219 11.972656 -10.449219 11.972656 -9.769531 C 11.972656 -8.601562 11.601562 -7.609375 10.855469 -6.800781 C 10.113281 -5.992188 8.769531 -5.585938 6.824219 -5.585938 L 3.300781 -5.585938 L 3.300781 0 L 1.480469 0 M 3.300781 -7.210938 L 6.851562 -7.210938 C 8.027344 -7.210938 8.863281 -7.429688 9.355469 -7.867188 C 9.851562 -8.304688 10.097656 -8.917969 10.097656 -9.710938 C 10.097656 -10.289062 9.953125 -10.78125 9.660156 -11.1875 C 9.371094 -11.597656 8.988281 -11.867188 8.511719 -12 C 8.207031 -12.082031 7.640625 -12.121094 6.816406 -12.121094 L 3.300781 -12.121094 Z M 3.300781 -7.210938 "/>
</g>
<g id="glyph-1-28">
<path d="M 1.40625 0 L 1.40625 -13.742188 L 6.5625 -13.742188 C 7.613281 -13.742188 8.453125 -13.605469 9.089844 -13.328125 C 9.722656 -13.046875 10.21875 -12.621094 10.578125 -12.042969 C 10.9375 -11.464844 11.117188 -10.859375 11.117188 -10.226562 C 11.117188 -9.640625 10.960938 -9.085938 10.640625 -8.570312 C 10.320312 -8.050781 9.839844 -7.632812 9.195312 -7.3125 C 10.027344 -7.070312 10.667969 -6.652344 11.113281 -6.066406 C 11.5625 -5.476562 11.785156 -4.785156 11.785156 -3.984375 C 11.785156 -3.339844 11.648438 -2.742188 11.375 -2.1875 C 11.105469 -1.636719 10.769531 -1.210938 10.367188 -0.910156 C 9.96875 -0.609375 9.46875 -0.382812 8.863281 -0.230469 C 8.261719 -0.078125 7.523438 0 6.648438 0 L 1.40625 0 M 3.226562 -7.96875 L 6.195312 -7.96875 C 7.003906 -7.96875 7.582031 -8.023438 7.929688 -8.128906 C 8.394531 -8.265625 8.742188 -8.492188 8.976562 -8.8125 C 9.210938 -9.132812 9.328125 -9.53125 9.328125 -10.011719 C 9.328125 -10.46875 9.21875 -10.871094 9 -11.21875 C 8.78125 -11.5625 8.46875 -11.800781 8.0625 -11.929688 C 7.65625 -12.058594 6.960938 -12.121094 5.972656 -12.121094 L 3.226562 -12.121094 L 3.226562 -7.96875 M 3.226562 -1.621094 L 6.648438 -1.621094 C 7.234375 -1.621094 7.648438 -1.644531 7.882812 -1.6875 C 8.304688 -1.761719 8.652344 -1.886719 8.933594 -2.0625 C 9.214844 -2.238281 9.445312 -2.492188 9.628906 -2.828125 C 9.808594 -3.160156 9.898438 -3.546875 9.898438 -3.984375 C 9.898438 -4.496094 9.769531 -4.941406 9.507812 -5.320312 C 9.242188 -5.699219 8.878906 -5.964844 8.414062 -6.117188 C 7.949219 -6.269531 7.277344 -6.347656 6.402344 -6.347656 L 3.226562 -6.347656 Z M 3.226562 -1.621094 "/>
</g>
<g id="glyph-1-29">
<path d="M 1.40625 0 L 1.40625 -13.742188 L 3.226562 -13.742188 L 3.226562 -1.621094 L 9.992188 -1.621094 L 9.992188 0 Z M 1.40625 0 "/>
</g>
<g id="glyph-1-30">
<path d="M 3.101562 0 L 0.0546875 -9.957031 L 1.800781 -9.957031 L 3.382812 -4.210938 L 3.976562 -2.070312 C 4 -2.179688 4.171875 -2.863281 4.492188 -4.125 L 6.074219 -9.957031 L 7.808594 -9.957031 L 9.300781 -4.179688 L 9.796875 -2.277344 L 10.367188 -4.199219 L 12.074219 -9.957031 L 13.714844 -9.957031 L 10.601562 0 L 8.851562 0 L 7.265625 -5.960938 L 6.882812 -7.660156 L 4.867188 0 Z M 3.101562 0 "/>
</g>
<g id="glyph-1-31">
<path d="M 1.574219 0 L 1.574219 -13.742188 L 10.847656 -13.742188 L 10.847656 -12.121094 L 3.394531 -12.121094 L 3.394531 -7.867188 L 9.84375 -7.867188 L 9.84375 -6.242188 L 3.394531 -6.242188 L 3.394531 0 Z M 1.574219 0 "/>
</g>
</g>
</defs>
<rect x="-28.8" y="-50.4" width="345.6" height="604.8" fill="rgb(100%, 100%, 100%)" fill-opacity="1"/>
<g fill="rgb(0%, 0%, 0%)" fill-opacity="1">
<use xlink:href="#glyph-0-0" x="25.183594" y="186.351562"/>
<use xlink:href="#glyph-0-1" x="39.84375" y="186.351562"/>
<use xlink:href="#glyph-0-2" x="53.191406" y="186.351562"/>
<use xlink:href="#glyph-0-3" x="65.191406" y="186.351562"/>
<use xlink:href="#glyph-0-4" x="78.539062" y="186.351562"/>
<use xlink:href="#glyph-0-5" x="83.871094" y="186.351562"/>
<use xlink:href="#glyph-0-6" x="90.539062" y="186.351562"/>
<use xlink:href="#glyph-0-5" x="103.886719" y="186.351562"/>
</g>
<path fill-rule="nonzero" fill="rgb(99.215686%, 90.588235%, 14.509804%)" fill-opacity="1" stroke-width="1.066978" stroke-linecap="butt" stroke-linejoin="miter" stroke="rgb(0%, 0%, 0%)" stroke-opacity="1" stroke-miterlimit="10" d="M 25.890625 211.46875 L 41.753906 211.46875 L 41.753906 194.886719 L 25.890625 194.886719 Z M 25.890625 211.46875 "/>
<path fill-rule="nonzero" fill="rgb(62.352941%, 85.490196%, 22.745098%)" fill-opacity="1" stroke-width="1.066978" stroke-linecap="butt" stroke-linejoin="miter" stroke="rgb(0%, 0%, 0%)" stroke-opacity="1" stroke-miterlimit="10" d="M 25.890625 229.46875 L 41.753906 229.46875 L 41.753906 212.886719 L 25.890625 212.886719 Z M 25.890625 229.46875 "/>
<path fill-rule="nonzero" fill="rgb(29.019608%, 75.686275%, 42.745098%)" fill-opacity="1" stroke-width="1.066978" stroke-linecap="butt" stroke-linejoin="miter" stroke="rgb(0%, 0%, 0%)" stroke-opacity="1" stroke-miterlimit="10" d="M 25.890625 247.46875 L 41.753906 247.46875 L 41.753906 230.886719 L 25.890625 230.886719 Z M 25.890625 247.46875 "/>
<path fill-rule="nonzero" fill="rgb(12.156863%, 63.137255%, 52.941176%)" fill-opacity="1" stroke-width="1.066978" stroke-linecap="butt" stroke-linejoin="miter" stroke="rgb(0%, 0%, 0%)" stroke-opacity="1" stroke-miterlimit="10" d="M 25.890625 265.46875 L 41.753906 265.46875 L 41.753906 248.886719 L 25.890625 248.886719 Z M 25.890625 265.46875 "/>
<path fill-rule="nonzero" fill="rgb(15.294118%, 49.803922%, 55.686275%)" fill-opacity="1" stroke-width="1.066978" stroke-linecap="butt" stroke-linejoin="miter" stroke="rgb(0%, 0%, 0%)" stroke-opacity="1" stroke-miterlimit="10" d="M 25.890625 283.46875 L 41.753906 283.46875 L 41.753906 266.886719 L 25.890625 266.886719 Z M 25.890625 283.46875 "/>
<path fill-rule="nonzero" fill="rgb(21.176471%, 36.078431%, 55.294118%)" fill-opacity="1" stroke-width="1.066978" stroke-linecap="butt" stroke-linejoin="miter" stroke="rgb(0%, 0%, 0%)" stroke-opacity="1" stroke-miterlimit="10" d="M 25.890625 301.46875 L 41.753906 301.46875 L 41.753906 284.886719 L 25.890625 284.886719 Z M 25.890625 301.46875 "/>
<path fill-rule="nonzero" fill="rgb(27.45098%, 20%, 49.411765%)" fill-opacity="1" stroke-width="1.066978" stroke-linecap="butt" stroke-linejoin="miter" stroke="rgb(0%, 0%, 0%)" stroke-opacity="1" stroke-miterlimit="10" d="M 25.890625 319.46875 L 41.753906 319.46875 L 41.753906 302.886719 L 25.890625 302.886719 Z M 25.890625 319.46875 "/>
<path fill-rule="nonzero" fill="rgb(26.666667%, 0.392157%, 32.941176%)" fill-opacity="1" stroke-width="1.066978" stroke-linecap="butt" stroke-linejoin="miter" stroke="rgb(0%, 0%, 0%)" stroke-opacity="1" stroke-miterlimit="10" d="M 25.890625 337.46875 L 41.753906 337.46875 L 41.753906 320.886719 L 25.890625 320.886719 Z M 25.890625 337.46875 "/>
<g fill="rgb(0%, 0%, 0%)" fill-opacity="1">
<use xlink:href="#glyph-1-0" x="47.941406" y="210.550781"/>
<use xlink:href="#glyph-1-1" x="60.747656" y="210.550781"/>
<use xlink:href="#glyph-1-2" x="71.425781" y="210.550781"/>
<use xlink:href="#glyph-1-3" x="81.025781" y="210.550781"/>
<use xlink:href="#glyph-1-4" x="85.291406" y="210.550781"/>
<use xlink:href="#glyph-1-5" x="95.969531" y="210.550781"/>
<use xlink:href="#glyph-1-6" x="100.235156" y="210.550781"/>
<use xlink:href="#glyph-1-0" x="105.569531" y="210.550781"/>
<use xlink:href="#glyph-1-2" x="118.375781" y="210.550781"/>
<use xlink:href="#glyph-1-3" x="127.975781" y="210.550781"/>
<use xlink:href="#glyph-1-7" x="132.241406" y="210.550781"/>
<use xlink:href="#glyph-1-8" x="142.919531" y="210.550781"/>
<use xlink:href="#glyph-1-2" x="153.597656" y="210.550781"/>
<use xlink:href="#glyph-1-7" x="163.197656" y="210.550781"/>
<use xlink:href="#glyph-1-9" x="173.875781" y="210.550781"/>
</g>
<g fill="rgb(0%, 0%, 0%)" fill-opacity="1">
<use xlink:href="#glyph-1-10" x="47.941406" y="228.550781"/>
<use xlink:href="#glyph-1-11" x="60.747656" y="228.550781"/>
<use xlink:href="#glyph-1-12" x="67.141406" y="228.550781"/>
<use xlink:href="#glyph-1-9" x="72.475781" y="228.550781"/>
<use xlink:href="#glyph-1-6" x="82.075781" y="228.550781"/>
<use xlink:href="#glyph-1-4" x="87.410156" y="228.550781"/>
<use xlink:href="#glyph-1-8" x="98.088281" y="228.550781"/>
<use xlink:href="#glyph-1-13" x="108.766406" y="228.550781"/>
<use xlink:href="#glyph-1-6" x="119.444531" y="228.550781"/>
<use xlink:href="#glyph-1-0" x="124.778906" y="228.550781"/>
<use xlink:href="#glyph-1-14" x="137.585156" y="228.550781"/>
<use xlink:href="#glyph-1-1" x="148.263281" y="228.550781"/>
<use xlink:href="#glyph-1-11" x="158.941406" y="228.550781"/>
<use xlink:href="#glyph-1-12" x="165.335156" y="228.550781"/>
<use xlink:href="#glyph-1-9" x="170.669531" y="228.550781"/>
</g>
<g fill="rgb(0%, 0%, 0%)" fill-opacity="1">
<use xlink:href="#glyph-1-15" x="47.941406" y="246.550781"/>
<use xlink:href="#glyph-1-16" x="61.807031" y="246.550781"/>
<use xlink:href="#glyph-1-5" x="72.485156" y="246.550781"/>
<use xlink:href="#glyph-1-12" x="76.750781" y="246.550781"/>
<use xlink:href="#glyph-1-16" x="82.085156" y="246.550781"/>
<use xlink:href="#glyph-1-11" x="92.763281" y="246.550781"/>
<use xlink:href="#glyph-1-4" x="99.157031" y="246.550781"/>
<use xlink:href="#glyph-1-5" x="109.835156" y="246.550781"/>
<use xlink:href="#glyph-1-6" x="114.100781" y="246.550781"/>
<use xlink:href="#glyph-1-0" x="119.435156" y="246.550781"/>
<use xlink:href="#glyph-1-12" x="132.241406" y="246.550781"/>
<use xlink:href="#glyph-1-16" x="137.575781" y="246.550781"/>
<use xlink:href="#glyph-1-13" x="148.253906" y="246.550781"/>
<use xlink:href="#glyph-1-3" x="158.932031" y="246.550781"/>
<use xlink:href="#glyph-1-7" x="163.197656" y="246.550781"/>
<use xlink:href="#glyph-1-9" x="173.875781" y="246.550781"/>
</g>
<g fill="rgb(0%, 0%, 0%)" fill-opacity="1">
<use xlink:href="#glyph-1-17" x="47.941406" y="264.550781"/>
<use xlink:href="#glyph-1-16" x="61.807031" y="264.550781"/>
<use xlink:href="#glyph-1-18" x="72.485156" y="264.550781"/>
<use xlink:href="#glyph-1-4" x="88.478906" y="264.550781"/>
<use xlink:href="#glyph-1-8" x="99.157031" y="264.550781"/>
<use xlink:href="#glyph-1-3" x="109.835156" y="264.550781"/>
<use xlink:href="#glyph-1-12" x="114.100781" y="264.550781"/>
<use xlink:href="#glyph-1-3" x="119.435156" y="264.550781"/>
<use xlink:href="#glyph-1-7" x="123.700781" y="264.550781"/>
<use xlink:href="#glyph-1-9" x="134.378906" y="264.550781"/>
<use xlink:href="#glyph-1-6" x="143.978906" y="264.550781"/>
<use xlink:href="#glyph-1-4" x="149.313281" y="264.550781"/>
<use xlink:href="#glyph-1-8" x="159.991406" y="264.550781"/>
<use xlink:href="#glyph-1-13" x="170.669531" y="264.550781"/>
<use xlink:href="#glyph-1-6" x="181.347656" y="264.550781"/>
<use xlink:href="#glyph-1-19" x="186.682031" y="264.550781"/>
<use xlink:href="#glyph-1-20" x="198.410156" y="264.550781"/>
<use xlink:href="#glyph-1-7" x="209.088281" y="264.550781"/>
<use xlink:href="#glyph-1-1" x="219.766406" y="264.550781"/>
<use xlink:href="#glyph-1-5" x="230.444531" y="264.550781"/>
<use xlink:href="#glyph-1-1" x="234.710156" y="264.550781"/>
<use xlink:href="#glyph-1-21" x="245.388281" y="264.550781"/>
<use xlink:href="#glyph-1-22" x="256.066406" y="264.550781"/>
</g>
<g fill="rgb(0%, 0%, 0%)" fill-opacity="1">
<use xlink:href="#glyph-1-23" x="47.941406" y="282.550781"/>
<use xlink:href="#glyph-1-7" x="61.807031" y="282.550781"/>
<use xlink:href="#glyph-1-20" x="72.485156" y="282.550781"/>
<use xlink:href="#glyph-1-4" x="83.163281" y="282.550781"/>
<use xlink:href="#glyph-1-24" x="93.841406" y="282.550781"/>
<use xlink:href="#glyph-1-3" x="104.519531" y="282.550781"/>
<use xlink:href="#glyph-1-5" x="108.785156" y="282.550781"/>
<use xlink:href="#glyph-1-3" x="113.050781" y="282.550781"/>
<use xlink:href="#glyph-1-12" x="117.316406" y="282.550781"/>
<use xlink:href="#glyph-1-4" x="122.650781" y="282.550781"/>
<use xlink:href="#glyph-1-12" x="133.328906" y="282.550781"/>
<use xlink:href="#glyph-1-3" x="138.663281" y="282.550781"/>
<use xlink:href="#glyph-1-1" x="142.928906" y="282.550781"/>
<use xlink:href="#glyph-1-8" x="153.607031" y="282.550781"/>
</g>
<g fill="rgb(0%, 0%, 0%)" fill-opacity="1">
<use xlink:href="#glyph-1-25" x="47.941406" y="300.550781"/>
<use xlink:href="#glyph-1-13" x="60.747656" y="300.550781"/>
<use xlink:href="#glyph-1-16" x="71.425781" y="300.550781"/>
<use xlink:href="#glyph-1-2" x="82.103906" y="300.550781"/>
<use xlink:href="#glyph-1-4" x="91.703906" y="300.550781"/>
<use xlink:href="#glyph-1-12" x="102.382031" y="300.550781"/>
<use xlink:href="#glyph-1-3" x="107.716406" y="300.550781"/>
<use xlink:href="#glyph-1-1" x="111.982031" y="300.550781"/>
<use xlink:href="#glyph-1-8" x="122.660156" y="300.550781"/>
<use xlink:href="#glyph-1-6" x="133.338281" y="300.550781"/>
<use xlink:href="#glyph-1-26" x="138.672656" y="300.550781"/>
<use xlink:href="#glyph-1-6" x="151.478906" y="300.550781"/>
<use xlink:href="#glyph-1-27" x="156.813281" y="300.550781"/>
<use xlink:href="#glyph-1-9" x="169.619531" y="300.550781"/>
<use xlink:href="#glyph-1-22" x="179.219531" y="300.550781"/>
<use xlink:href="#glyph-1-2" x="188.819531" y="300.550781"/>
<use xlink:href="#glyph-1-20" x="198.419531" y="300.550781"/>
<use xlink:href="#glyph-1-1" x="209.097656" y="300.550781"/>
<use xlink:href="#glyph-1-5" x="219.775781" y="300.550781"/>
<use xlink:href="#glyph-1-1" x="224.041406" y="300.550781"/>
<use xlink:href="#glyph-1-21" x="234.719531" y="300.550781"/>
<use xlink:href="#glyph-1-22" x="245.397656" y="300.550781"/>
</g>
<g fill="rgb(0%, 0%, 0%)" fill-opacity="1">
<use xlink:href="#glyph-1-28" x="47.941406" y="318.550781"/>
<use xlink:href="#glyph-1-16" x="60.747656" y="318.550781"/>
<use xlink:href="#glyph-1-9" x="71.425781" y="318.550781"/>
<use xlink:href="#glyph-1-3" x="81.025781" y="318.550781"/>
<use xlink:href="#glyph-1-8" x="85.291406" y="318.550781"/>
<use xlink:href="#glyph-1-7" x="95.969531" y="318.550781"/>
<use xlink:href="#glyph-1-9" x="106.647656" y="318.550781"/>
<use xlink:href="#glyph-1-9" x="116.247656" y="318.550781"/>
<use xlink:href="#glyph-1-6" x="125.847656" y="318.550781"/>
<use xlink:href="#glyph-1-4" x="131.182031" y="318.550781"/>
<use xlink:href="#glyph-1-8" x="141.860156" y="318.550781"/>
<use xlink:href="#glyph-1-13" x="152.538281" y="318.550781"/>
<use xlink:href="#glyph-1-6" x="163.216406" y="318.550781"/>
<use xlink:href="#glyph-1-25" x="168.550781" y="318.550781"/>
<use xlink:href="#glyph-1-2" x="181.357031" y="318.550781"/>
<use xlink:href="#glyph-1-1" x="190.957031" y="318.550781"/>
<use xlink:href="#glyph-1-8" x="201.635156" y="318.550781"/>
<use xlink:href="#glyph-1-1" x="212.313281" y="318.550781"/>
<use xlink:href="#glyph-1-18" x="222.991406" y="318.550781"/>
<use xlink:href="#glyph-1-3" x="238.985156" y="318.550781"/>
<use xlink:href="#glyph-1-2" x="243.250781" y="318.550781"/>
<use xlink:href="#glyph-1-9" x="252.850781" y="318.550781"/>
</g>
<g fill="rgb(0%, 0%, 0%)" fill-opacity="1">
<use xlink:href="#glyph-1-29" x="47.941406" y="336.550781"/>
<use xlink:href="#glyph-1-1" x="58.619531" y="336.550781"/>
<use xlink:href="#glyph-1-30" x="69.297656" y="336.550781"/>
<use xlink:href="#glyph-1-7" x="83.163281" y="336.550781"/>
<use xlink:href="#glyph-1-11" x="93.841406" y="336.550781"/>
<use xlink:href="#glyph-1-6" x="100.235156" y="336.550781"/>
<use xlink:href="#glyph-1-31" x="105.569531" y="336.550781"/>
<use xlink:href="#glyph-1-4" x="117.297656" y="336.550781"/>
<use xlink:href="#glyph-1-2" x="127.975781" y="336.550781"/>
<use xlink:href="#glyph-1-16" x="137.575781" y="336.550781"/>
<use xlink:href="#glyph-1-5" x="148.253906" y="336.550781"/>
<use xlink:href="#glyph-1-12" x="152.519531" y="336.550781"/>
<use xlink:href="#glyph-1-3" x="157.853906" y="336.550781"/>
<use xlink:href="#glyph-1-7" x="162.119531" y="336.550781"/>
<use xlink:href="#glyph-1-9" x="172.797656" y="336.550781"/>
</g>
</svg>
